<svg width="31" height="28" viewBox="0 0 31 28" fill="none" xmlns="http://www.w3.org/2000/svg">
<g clip-path="url(#clip0_2124_46000)">
<path d="M6.54687 20.0312C9.39453 20.0312 11.1406 18.1328 11.1406 15.6719C11.1406 14.8984 10.8125 14.0195 10.3555 13.5742C9.82812 13.0703 9.48828 12.9297 9.48828 12.3438C9.48828 11.8633 9.85156 11.5352 10.4023 11.5352C10.8008 11.5352 11.0586 11.6523 11.4805 12.0156C11.8437 12.332 12.1601 12.7305 12.3828 13.1992C14.1875 12.7773 14.8672 11.6758 14.8672 9.90625C14.8672 9.39062 15.3008 8.95703 15.8164 8.95703C16.332 8.95703 16.7539 9.39062 16.7539 9.90625C16.7656 12.4961 15.5703 14.3008 12.9453 14.9688C12.9687 15.2031 12.9922 15.4492 12.9922 15.707C12.9922 17.8984 12.043 19.668 10.3906 20.7812C11.5625 21.5078 13.0625 21.918 14.5976 21.918C14.8906 21.918 15.2187 21.8945 15.8398 21.8711C15.7109 21.2852 15.6406 20.7344 15.6406 20.207C15.6406 13.2461 25.5078 14.0078 25.5078 7.38672C25.5078 4.63281 22.8359 2.74609 20.2344 2.74609C20 2.74609 19.6719 2.79297 19.3437 2.86328C18.4062 1.70312 16.9062 1 15.5 1C13.0156 1 11.3633 2.61719 11.2812 4.85547C11.2578 5.45312 10.8594 5.79297 10.3437 5.79297C9.80469 5.79297 9.39453 5.38281 9.41797 4.77344C9.45312 3.92969 9.6289 3.15625 9.93359 2.47656C9.38281 2.32422 8.83203 2.25391 8.28125 2.25391C5.44531 2.25391 3.32422 4.04688 3.32422 6.23828C3.32422 7.70312 4.41406 8.91016 5.99609 8.91016C6.51172 8.91016 6.93359 9.34375 6.93359 9.84766C6.93359 10.3633 6.51172 10.7969 5.99609 10.7969C3.94531 10.7969 2.44531 9.84766 1.7539 8.35938C0.652344 9.63672 0.0078125 11.3242 0.0078125 13.0703C0.0078125 17.0898 2.59765 20.0312 6.54687 20.0312ZM25.4375 26.9219C28.3672 26.9219 29.7969 23.3594 29.7969 19.8906C29.7969 19.3633 29.7734 18.8711 29.7617 18.4141C28.7305 18.9414 27.4766 19.1758 26.0351 19.082C25.5078 19.0469 25.0859 18.6719 25.0859 18.1445C25.0859 17.6289 25.5078 17.1602 26.0351 17.207C28.918 17.4297 30.8516 15.8125 30.8516 13.1758C30.8516 10.832 29.5859 8.91016 27.5469 7.9375C26.0586 15.6484 17.6328 14.6172 17.375 19.8672C17.293 21.6367 18.6406 23.0312 20.5625 23.0312C21.2422 23.0312 21.582 23.0078 21.8867 22.9961C22.1562 24.9883 23.4101 26.9219 25.4375 26.9219Z" fill="#ECD71A" fill-opacity="1"/>
</g>
<defs>
<clipPath id="clip0_2124_46000">
<rect width="30.8438" height="25.9336" fill="white" transform="translate(0.0078125 1)"/>
</clipPath>
</defs>
</svg>
