<svg width="31" height="28" viewBox="0 0 31 28" fill="none" xmlns="http://www.w3.org/2000/svg">
<g clip-path="url(#clip0_2124_45999)">
<path d="M0.00585938 13.0703C0.00585938 17.3477 2.93555 20.1836 7.33008 20.1836C11.6543 20.1836 14.5489 17.6406 14.5489 13.8086C14.5489 12.2148 13.9864 10.9258 13.0489 10.1172C12.6153 9.76562 12.3692 9.63672 11.959 9.63672C11.42 9.63672 11.045 9.96484 11.045 10.4453C11.045 11.0312 11.3848 11.1836 11.9239 11.6758C12.4161 12.1562 12.6973 12.8828 12.6973 13.7734C12.6973 16.4922 10.5645 18.3086 7.36524 18.3086C4.08398 18.3086 1.89258 16.2109 1.89258 13.0586C1.89258 11.2539 2.80664 9.55469 4.30664 8.58203L3.36914 6.95312C1.2832 8.25391 0.00585938 10.5859 0.00585938 13.0703ZM3.16992 6.96484C3.16992 9.58984 4.98633 11.4414 7.85742 11.4414C8.36133 11.4414 8.79492 11.0195 8.79492 10.5039C8.79492 9.98828 8.36133 9.55469 7.85742 9.55469C6.12305 9.55469 5.05664 8.46484 5.05664 6.96484C5.05664 5.30078 6.42774 4.14062 8.26758 4.14062C9.12305 4.14062 10.0371 4.39844 10.8809 4.97266L11.9825 3.4375C10.8106 2.61719 9.50977 2.25391 8.2793 2.25391C5.44336 2.25391 3.16992 4.1875 3.16992 6.96484ZM9.41602 6.64844C9.39258 7.25781 9.80274 7.66797 10.3418 7.66797C10.8575 7.66797 11.2559 7.32812 11.2793 6.73047C11.3614 4.50391 12.9786 2.875 15.252 2.875C16.6231 2.875 17.8184 3.60156 18.2989 4.67969C18.3926 4.85547 18.5215 4.86719 18.7442 4.79688C19.1309 4.69141 19.5645 4.63281 19.9864 4.63281C22.084 4.65625 24.0762 6.23828 24.0762 8.75781C24.0762 14.2656 16.3418 13.5039 16.3418 18.8711C16.3418 21.4258 18.3692 23.0312 20.9942 23.0312C21.2754 23.0312 21.5801 23.0078 21.8848 22.9961C22.1543 24.9883 23.4082 26.9219 25.4356 26.9219C28.3653 26.9219 29.795 23.3594 29.795 19.8906C29.795 18.3789 29.7129 17.3594 29.6075 16.3984L27.7207 16.9258C27.8262 17.8633 27.92 18.7422 27.92 19.8672C27.92 22.7148 26.8418 25.0352 25.4356 25.0352C23.9825 25.0352 23.3965 23.1016 23.3965 21.5664C23.3965 21.4375 23.3262 21.3555 23.1621 21.3672C22.834 21.3672 22.3887 21.3789 22.0957 21.3789C19.7637 21.3789 18.2286 20.6523 18.2286 18.8359C18.2286 14.5586 25.9629 15.5195 25.9629 8.75781C25.9629 5.14844 23.2911 2.74609 20.2325 2.74609C19.9981 2.74609 19.67 2.79297 19.3418 2.86328C18.4043 1.70312 16.9043 1 15.2637 1C11.9356 1 9.55664 3.33203 9.41602 6.64844ZM23.1973 18.1445C23.1973 18.6719 23.6192 19.0469 24.1465 19.082C28.1661 19.3398 30.8497 16.9844 30.8497 13.1758C30.8497 10.0586 28.6348 7.67969 25.3067 7.23438L25.0137 9.10938C27.3809 9.14453 28.9629 10.7617 28.9629 13.1758C28.9629 15.8125 27.0293 17.4297 24.1465 17.207C23.6192 17.1602 23.1973 17.6289 23.1973 18.1445ZM17.1739 19.668C16.4825 19.9141 15.6739 20.0312 14.9121 20.0312C12.9317 20.0312 10.9161 19.2578 10.1426 18.0625L8.58398 19.3281C9.81445 20.8633 12.0411 21.918 14.7129 21.918C15.6739 21.918 16.752 21.7773 17.8184 21.4727L17.1739 19.668ZM13.4121 11.3945L14.045 13.1875C16.9981 12.6016 18.3223 10.75 18.3223 8.00781C18.3223 7.49219 17.8887 7.07031 17.3731 7.07031C16.8575 7.07031 16.4356 7.49219 16.4356 8.00781C16.4356 9.94141 15.6153 11.0781 13.4121 11.3945Z" fill="#ECD71A"/>
</g>
<defs>
<clipPath id="clip0_2124_45999">
<rect width="30.8438" height="25.9336" fill="white" transform="translate(0.00585938 1)"/>
</clipPath>
</defs>
</svg>
