<svg width="1375" height="266" viewBox="0 0 1375 266" fill="none" xmlns="http://www.w3.org/2000/svg">
<path d="M288.579 229.306C278.011 251.708 255.466 266 230.697 266H182.162L174.717 114.139C174.693 113.639 174.28 113.246 173.78 113.246C173.412 113.246 173.078 113.46 172.926 113.795L120.611 228.548C110.211 251.361 87.4488 266 62.3774 266H15.5536L0.31844 69.8826C-2.57045 32.6948 26.8263 0.925842 64.1262 0.925842H86.6896V151.661C86.6896 152.156 87.0909 152.558 87.5859 152.558C87.9497 152.558 88.2773 152.338 88.4153 152.001L134.054 40.6535C143.904 16.6219 167.301 0.925842 193.273 0.925842H239.445L242.422 151.669C242.432 152.163 242.835 152.558 243.329 152.558C243.697 152.558 244.029 152.335 244.168 151.995L289.805 40.6535C299.655 16.6219 323.051 0.925842 349.023 0.925842H396.318L288.579 229.306Z" fill="#EEEEEE"/>
<path d="M353.564 266L391.029 53.7985C396.428 23.218 423.001 0.925842 454.054 0.925842H487.599L450.134 213.128C444.735 243.708 418.162 266 387.109 266H353.564Z" fill="#EEEEEE"/>
<path d="M447.983 266L485.448 53.7985C490.847 23.218 517.42 0.925842 548.473 0.925842H582.018L548.322 191.87H637.804L634.043 213.141C628.639 243.715 602.069 266 571.021 266H447.983Z" fill="#EEEEEE"/>
<path d="M922.763 229.306C912.195 251.708 889.65 266 864.881 266H816.346L808.901 114.139C808.877 113.639 808.464 113.246 807.964 113.246C807.596 113.246 807.262 113.46 807.109 113.795L754.795 228.548C744.395 251.361 721.633 266 696.561 266H649.737L634.502 69.8826C631.613 32.6948 661.01 0.925842 698.31 0.925842H720.874V151.661C720.874 152.156 721.275 152.558 721.77 152.558C722.134 152.558 722.461 152.338 722.599 152.001L768.238 40.6535C778.088 16.6218 801.485 0.925842 827.457 0.925842H873.629L876.606 151.669C876.616 152.163 877.019 152.558 877.513 152.558C877.881 152.558 878.213 152.335 878.352 151.995L923.988 40.6535C933.839 16.6219 957.235 0.925842 983.207 0.925842H1030.5L922.763 229.306Z" fill="#ECD71A"/>
<path d="M987.748 266L1025.21 53.7985C1030.61 23.218 1057.18 0.925842 1088.24 0.925842H1121.78L1084.32 213.128C1078.92 243.708 1052.35 266 1021.29 266H987.748Z" fill="#ECD71A"/>
<path d="M1240.91 266L1188.74 135.201C1188.59 134.83 1188.23 134.587 1187.83 134.587C1187.35 134.587 1186.94 134.937 1186.87 135.412L1174.88 211.908C1170 243.049 1143.18 266 1111.65 266H1082.17L1119.63 53.7985C1125.03 23.218 1151.6 0.925842 1182.66 0.925842H1213.96L1267.25 138.458C1267.4 138.833 1267.76 139.079 1268.16 139.079C1268.64 139.079 1269.05 138.731 1269.12 138.258L1282.21 54.9882C1287.1 23.8608 1313.92 0.925842 1345.43 0.925842H1374.95L1337.48 213.128C1332.08 243.708 1305.51 266 1274.46 266H1240.91Z" fill="#ECD71A"/>
</svg>
